<mxfile host="app.diagrams.net" agent="Mozilla/5.0 (Linux; Android 10; K) AppleWebKit/537.36 (KHTML, like Gecko) Chrome/130.0.0.0 Mobile Safari/537.36" version="24.8.2">
  <diagram name="PÃ¡gina-1" id="COG40U5v60Q2ondNrVHn">
    <mxGraphModel dx="1493" dy="948" grid="0" gridSize="10" guides="1" tooltips="1" connect="1" arrows="1" fold="1" page="0" pageScale="1" pageWidth="850" pageHeight="1100" math="0" shadow="0">
      <root>
        <mxCell id="0" />
        <mxCell id="1" parent="0" />
        <mxCell id="lxscDyOnqhnk-42hcH_6-5" value="" style="edgeStyle=none;curved=1;rounded=0;orthogonalLoop=1;jettySize=auto;html=1;fontSize=12;startSize=8;endSize=8;" parent="1" source="lxscDyOnqhnk-42hcH_6-1" target="lxscDyOnqhnk-42hcH_6-4" edge="1">
          <mxGeometry relative="1" as="geometry" />
        </mxCell>
        <mxCell id="lxscDyOnqhnk-42hcH_6-1" value="&lt;font style=&quot;vertical-align: inherit;&quot;&gt;&lt;font style=&quot;vertical-align: inherit;&quot;&gt;Inicio&amp;nbsp;&lt;/font&gt;&lt;/font&gt;" style="rounded=1;whiteSpace=wrap;html=1;" parent="1" vertex="1">
          <mxGeometry x="-100" y="31" width="120" height="60" as="geometry" />
        </mxCell>
        <mxCell id="lxscDyOnqhnk-42hcH_6-8" value="" style="edgeStyle=none;curved=1;rounded=0;orthogonalLoop=1;jettySize=auto;html=1;fontSize=12;startSize=8;endSize=8;" parent="1" source="lxscDyOnqhnk-42hcH_6-4" target="lxscDyOnqhnk-42hcH_6-7" edge="1">
          <mxGeometry relative="1" as="geometry" />
        </mxCell>
        <mxCell id="lxscDyOnqhnk-42hcH_6-4" value="&lt;font style=&quot;vertical-align: inherit;&quot;&gt;&lt;font style=&quot;vertical-align: inherit;&quot;&gt;&lt;font style=&quot;vertical-align: inherit;&quot;&gt;&lt;font style=&quot;vertical-align: inherit;&quot;&gt;Dime un numero&amp;nbsp;&lt;/font&gt;&lt;/font&gt;&lt;/font&gt;&lt;/font&gt;" style="shape=parallelogram;perimeter=parallelogramPerimeter;whiteSpace=wrap;html=1;fixedSize=1;" parent="1" vertex="1">
          <mxGeometry x="143" y="34" width="120" height="60" as="geometry" />
        </mxCell>
        <mxCell id="lxscDyOnqhnk-42hcH_6-13" value="" style="edgeStyle=none;curved=1;rounded=0;orthogonalLoop=1;jettySize=auto;html=1;fontSize=12;startSize=8;endSize=8;entryX=0;entryY=0.5;entryDx=0;entryDy=0;" parent="1" edge="1" target="XapnRbZLST53SThHr06--3">
          <mxGeometry relative="1" as="geometry">
            <mxPoint x="625" y="59" as="targetPoint" />
            <mxPoint x="445" y="66.58" as="sourcePoint" />
          </mxGeometry>
        </mxCell>
        <mxCell id="lxscDyOnqhnk-42hcH_6-14" value="&lt;font style=&quot;vertical-align: inherit;&quot;&gt;&lt;font style=&quot;vertical-align: inherit;&quot;&gt;Si&lt;/font&gt;&lt;/font&gt;" style="edgeLabel;html=1;align=center;verticalAlign=middle;resizable=0;points=[];fontSize=12;" parent="lxscDyOnqhnk-42hcH_6-13" vertex="1" connectable="0">
          <mxGeometry x="-0.1576" y="5" relative="1" as="geometry">
            <mxPoint as="offset" />
          </mxGeometry>
        </mxCell>
        <mxCell id="lxscDyOnqhnk-42hcH_6-16" value="" style="edgeStyle=none;curved=1;rounded=0;orthogonalLoop=1;jettySize=auto;html=1;fontSize=12;startSize=8;endSize=8;" parent="1" source="lxscDyOnqhnk-42hcH_6-7" target="lxscDyOnqhnk-42hcH_6-15" edge="1">
          <mxGeometry relative="1" as="geometry" />
        </mxCell>
        <mxCell id="lxscDyOnqhnk-42hcH_6-7" value="&lt;font style=&quot;vertical-align: inherit;&quot;&gt;&lt;font style=&quot;vertical-align: inherit;&quot;&gt;Es mayor a 5&lt;/font&gt;&lt;/font&gt;" style="rhombus;whiteSpace=wrap;html=1;" parent="1" vertex="1">
          <mxGeometry x="365" y="24" width="80" height="80" as="geometry" />
        </mxCell>
        <mxCell id="lxscDyOnqhnk-42hcH_6-15" value="&lt;font style=&quot;vertical-align: inherit;&quot;&gt;&lt;font style=&quot;vertical-align: inherit;&quot;&gt;Fuera de rango&lt;/font&gt;&lt;/font&gt;" style="whiteSpace=wrap;html=1;" parent="1" vertex="1">
          <mxGeometry x="345" y="234" width="120" height="60" as="geometry" />
        </mxCell>
        <mxCell id="XapnRbZLST53SThHr06--5" value="" style="edgeStyle=none;curved=1;rounded=0;orthogonalLoop=1;jettySize=auto;html=1;fontSize=12;startSize=8;endSize=8;" edge="1" parent="1" source="XapnRbZLST53SThHr06--3" target="XapnRbZLST53SThHr06--4">
          <mxGeometry relative="1" as="geometry" />
        </mxCell>
        <mxCell id="XapnRbZLST53SThHr06--8" value="&lt;font style=&quot;vertical-align: inherit;&quot;&gt;&lt;font style=&quot;vertical-align: inherit;&quot;&gt;&lt;font style=&quot;vertical-align: inherit;&quot;&gt;&lt;font style=&quot;vertical-align: inherit;&quot;&gt;Si&lt;/font&gt;&lt;/font&gt;&lt;/font&gt;&lt;/font&gt;" style="edgeLabel;html=1;align=center;verticalAlign=middle;resizable=0;points=[];fontSize=12;" vertex="1" connectable="0" parent="XapnRbZLST53SThHr06--5">
          <mxGeometry x="-0.1877" y="9" relative="1" as="geometry">
            <mxPoint y="-1" as="offset" />
          </mxGeometry>
        </mxCell>
        <mxCell id="XapnRbZLST53SThHr06--7" value="&lt;font style=&quot;vertical-align: inherit;&quot;&gt;&lt;font style=&quot;vertical-align: inherit;&quot;&gt;&lt;font style=&quot;vertical-align: inherit;&quot;&gt;&lt;font style=&quot;vertical-align: inherit;&quot;&gt;no&lt;/font&gt;&lt;/font&gt;&lt;/font&gt;&lt;/font&gt;" style="edgeStyle=none;curved=1;rounded=0;orthogonalLoop=1;jettySize=auto;html=1;fontSize=12;startSize=8;endSize=8;" edge="1" parent="1" source="XapnRbZLST53SThHr06--3" target="XapnRbZLST53SThHr06--9">
          <mxGeometry relative="1" as="geometry">
            <mxPoint x="752.5" y="61" as="targetPoint" />
          </mxGeometry>
        </mxCell>
        <mxCell id="XapnRbZLST53SThHr06--3" value="&lt;font style=&quot;vertical-align: inherit;&quot;&gt;&lt;font style=&quot;vertical-align: inherit;&quot;&gt;&lt;font style=&quot;vertical-align: inherit;&quot;&gt;&lt;font style=&quot;vertical-align: inherit;&quot;&gt;Es menor a 10&lt;/font&gt;&lt;/font&gt;&lt;/font&gt;&lt;/font&gt;" style="rhombus;whiteSpace=wrap;html=1;" vertex="1" parent="1">
          <mxGeometry x="557" y="21" width="77" height="80" as="geometry" />
        </mxCell>
        <mxCell id="XapnRbZLST53SThHr06--11" value="" style="edgeStyle=none;curved=1;rounded=0;orthogonalLoop=1;jettySize=auto;html=1;fontSize=12;startSize=8;endSize=8;" edge="1" parent="1" source="XapnRbZLST53SThHr06--4" target="XapnRbZLST53SThHr06--10">
          <mxGeometry relative="1" as="geometry" />
        </mxCell>
        <mxCell id="XapnRbZLST53SThHr06--4" value="&lt;font style=&quot;vertical-align: inherit;&quot;&gt;&lt;font style=&quot;vertical-align: inherit;&quot;&gt;&lt;font style=&quot;vertical-align: inherit;&quot;&gt;&lt;font style=&quot;vertical-align: inherit;&quot;&gt;7&lt;/font&gt;&lt;/font&gt;&lt;/font&gt;&lt;/font&gt;" style="whiteSpace=wrap;html=1;" vertex="1" parent="1">
          <mxGeometry x="535.5" y="231" width="120" height="60" as="geometry" />
        </mxCell>
        <mxCell id="XapnRbZLST53SThHr06--12" value="" style="edgeStyle=none;curved=1;rounded=0;orthogonalLoop=1;jettySize=auto;html=1;fontSize=12;startSize=8;endSize=8;" edge="1" parent="1" source="XapnRbZLST53SThHr06--9" target="XapnRbZLST53SThHr06--10">
          <mxGeometry relative="1" as="geometry" />
        </mxCell>
        <mxCell id="XapnRbZLST53SThHr06--9" value="&lt;font style=&quot;vertical-align: inherit;&quot;&gt;&lt;font style=&quot;vertical-align: inherit;&quot;&gt;error&amp;nbsp;&lt;/font&gt;&lt;/font&gt;" style="rounded=0;whiteSpace=wrap;html=1;" vertex="1" parent="1">
          <mxGeometry x="667" y="-53" width="123" height="59" as="geometry" />
        </mxCell>
        <mxCell id="XapnRbZLST53SThHr06--10" value="&lt;font style=&quot;vertical-align: inherit;&quot;&gt;&lt;font style=&quot;vertical-align: inherit;&quot;&gt;Fin&lt;/font&gt;&lt;/font&gt;" style="rounded=1;whiteSpace=wrap;html=1;arcSize=6;" vertex="1" parent="1">
          <mxGeometry x="712" y="330" width="162" height="63" as="geometry" />
        </mxCell>
      </root>
    </mxGraphModel>
  </diagram>
</mxfile>
